<svg width="151" height="151" viewBox="0 0 151 151" fill="none" xmlns="http://www.w3.org/2000/svg">
<path d="M3.13609 81.5355C4.86716 81.5355 6.27218 80.1305 6.27218 78.3932C6.27218 52.4523 27.371 31.3535 53.312 31.3535C78.7572 31.3535 87.6636 45.7415 94.8325 57.3068C99.0473 64.112 102.685 69.9949 108.794 71.9706C110.481 72.51 112.212 71.6004 112.745 69.9573C113.278 68.3076 112.382 66.5389 110.732 66.0059C106.812 64.7326 103.726 59.7652 100.164 54.0075C92.5996 41.8022 82.2447 25.0875 53.312 25.0875C23.9153 25.0875 0.000305176 49.0025 0.000305176 78.3991C0.000305176 80.1308 1.40503 81.5355 3.13609 81.5355Z" fill="white"/>
<path d="M20.1395 87.9456C17.5993 79.0894 18.653 69.7694 23.1124 61.71C27.5718 53.6442 34.91 47.7924 43.7661 45.2461C61.8106 40.122 80.8584 50.4896 86.2962 68.377C86.3715 68.6216 86.4782 68.8536 86.6099 69.0732C86.9989 69.7256 87.3437 70.2901 98.4889 79.5099C99.8187 80.6138 101.788 80.4318 102.905 79.0897C104.008 77.7538 103.82 75.7843 102.484 74.6742C94.8578 68.3647 92.6122 66.3637 92.1168 65.9436C85.4498 45.1708 63.1277 33.1913 42.0539 39.2124C31.5734 42.2291 22.9054 49.1345 17.6308 58.668C12.3623 68.195 11.1143 79.2023 14.1184 89.6704C19.2613 107.546 8.22902 112.507 4.71662 113.604C3.06082 114.125 2.14501 115.881 2.65951 117.537C3.0861 118.879 4.32148 119.738 5.65741 119.738C5.96464 119.738 6.28451 119.694 6.58557 119.607C16.1755 116.602 25.4832 106.517 20.1395 87.9456Z" fill="white"/>
<path d="M6.27217 103.487C6.74256 103.487 7.21914 103.381 7.67072 103.155C9.2198 102.377 9.84719 100.496 9.07574 98.9464C7.94678 96.6885 6.27217 92.5804 6.27217 90.9435C6.27217 89.2124 4.86715 87.8074 3.13608 87.8074C1.40502 87.8074 0 89.2124 0 90.9435C0 94.6314 2.89148 100.596 3.4683 101.756C4.02043 102.848 5.11822 103.487 6.27217 103.487Z" fill="white"/>
<path d="M4.64136 37.1802C6.11517 38.0646 8.03439 37.6068 8.9502 36.1265C11.6785 31.6357 25.1069 18.8159 50.1759 18.8159C74.279 18.8159 91.4391 31.0274 94.5311 36.1265C95.1271 37.0923 96.1555 37.6318 97.2156 37.6318C97.7739 37.6318 98.332 37.4875 98.8465 37.1802C100.32 36.2771 100.797 34.3452 99.9001 32.8652C95.5851 25.7778 76.5872 12.544 50.1697 12.544C22.0714 12.544 7.01863 27.2143 3.58149 32.8652C2.6845 34.3517 3.16137 36.2771 4.64136 37.1802Z" fill="white"/>
<path d="M23.2441 12.268C24.6615 11.6221 25.8783 11.0073 27.0323 10.4114C31.7174 8.00911 35.1043 6.27187 50.1759 6.27187C67.129 6.27187 73.3697 8.58623 79.9803 11.0449C81.1783 11.4903 82.3887 11.9419 83.6555 12.3747C83.988 12.4876 84.3267 12.544 84.6716 12.544C85.9761 12.544 87.1868 11.7288 87.6507 10.424C88.209 8.78703 87.3435 7.00569 85.7 6.44122C84.477 6.02109 83.3292 5.58833 82.1688 5.16173C75.3265 2.62805 68.2579 0 50.1759 0C33.599 0 29.4469 2.13237 24.1723 4.83569C23.1124 5.37518 21.9958 5.952 20.6725 6.54794C19.092 7.25677 18.3896 9.11308 19.092 10.6936C19.7946 12.2741 21.6574 12.9768 23.2441 12.268Z" fill="white"/>
<path d="M137.25 130.789L127.836 128.444L127.44 126.863C129.88 124.166 131.618 120.723 132.339 117.148C134.013 116.282 135.23 114.633 135.475 112.657L136.152 107.213C136.359 105.563 135.851 103.889 134.754 102.635C134.415 102.252 134.026 101.913 133.606 101.631L133.769 98.3008L134.34 97.7237C135.958 96.0114 138.147 92.3361 134.685 87.0489C133.041 84.5402 129.661 81.5358 122.874 81.5358C120.874 81.5358 116.364 81.5358 111.986 84.2891C99.0784 84.7407 97.5605 91.6964 97.5605 96.946C97.5605 97.9809 97.7487 99.919 97.9242 101.543C97.4599 101.838 97.0336 102.202 96.6635 102.622C95.5472 103.883 95.0327 105.557 95.2461 107.213L95.9235 112.67C96.1807 114.714 97.479 116.408 99.3918 117.242C100.094 120.666 101.731 123.972 104.027 126.606L103.569 128.45L94.1548 130.796C86.5344 132.702 81.2033 139.526 81.2033 147.391C81.2033 148.226 81.5293 149.028 82.1191 149.612C82.7086 150.195 83.4988 150.528 84.3332 150.528L147.065 150.521C148.797 150.521 150.202 149.116 150.202 147.385C150.201 139.526 144.876 132.702 137.25 130.789ZM87.927 144.249C89.0057 140.674 91.8972 137.827 95.6792 136.879L106.918 134.076C108.041 133.793 108.919 132.922 109.201 131.793L110.537 126.443C110.813 125.345 110.468 124.179 109.634 123.401C107.194 121.099 105.583 117.743 105.313 114.42C105.181 112.789 103.789 111.892 102.152 111.892L101.342 106.9C102.246 106.9 103.099 106.511 103.694 105.84C104.29 105.156 104.566 104.265 104.453 103.369C104.215 101.475 103.832 98.0438 103.832 96.9399C103.832 93.6974 103.832 90.6304 113.002 90.5363C113.642 90.5301 114.269 90.3293 114.796 89.9468C117.781 87.808 121.224 87.808 122.874 87.808C127.691 87.808 129.002 89.8151 129.447 90.4798C130.72 92.4367 130.199 92.9885 129.848 93.3648L128.487 94.7258C127.935 95.2776 127.609 96.0114 127.571 96.7893L127.239 103.62C127.201 104.472 127.301 105.068 127.885 105.689C128.474 106.31 129.076 106.429 129.929 106.442L129.528 111.535C127.891 111.535 126.536 112.789 126.405 114.42C126.129 117.807 124.391 121.319 121.87 123.577C121.011 124.348 120.641 125.54 120.923 126.669L122.203 131.793C122.485 132.916 123.357 133.794 124.485 134.076L135.725 136.88C139.501 137.827 142.386 140.674 143.464 144.255L87.927 144.249Z" fill="white"/>
<path d="M106.762 54.2651C107.195 55.5948 108.424 56.4477 109.76 56.4477C110.08 56.4477 110.393 56.3975 110.719 56.291C112.362 55.758 113.278 53.9955 112.751 52.3459C111.083 47.14 106.36 39.4443 106.16 39.1183C105.244 37.638 103.3 37.1741 101.845 38.0896C100.371 38.9989 99.9066 40.9308 100.816 42.4046C100.86 42.4801 105.332 49.7869 106.762 54.2651Z" fill="white"/>
<path d="M82.4892 130.181C83.5806 128.833 83.3736 126.863 82.025 125.772C65.975 112.776 48.9405 97.3035 44.2615 81.009C43.5653 78.5944 43.8537 76.0542 45.0706 73.8527C46.2874 71.6513 48.2819 70.0581 50.6965 69.3684C53.1176 68.6848 55.6639 68.9671 57.8592 70.1775C60.0607 71.3879 61.6539 73.3888 62.3436 75.8096C64.4133 82.9911 71.7389 92.0477 84.7283 103.475C86.0266 104.629 88.0023 104.491 89.1501 103.193C90.2978 101.895 90.1723 99.9128 88.8678 98.7712C74.0471 85.7256 69.5377 78.1363 68.3647 74.0721C67.2169 70.0393 64.5577 66.7089 60.8947 64.6829C57.2318 62.6635 53.0171 62.1866 48.9716 63.3344C44.9389 64.4883 41.6084 67.1413 39.5825 70.8104C37.5565 74.4734 37.0738 78.7005 38.2339 82.7271C43.4021 100.696 61.2708 117.022 78.0798 130.632C78.657 131.103 79.3593 131.329 80.0493 131.329C80.9651 131.329 81.8683 130.934 82.4892 130.181Z" fill="white"/>
<path d="M56.3163 77.5277C55.8333 75.8593 54.1275 74.8935 52.4341 75.3827C50.7721 75.8593 49.8125 77.5968 50.2891 79.265C55.2376 96.4565 74.0097 110.7 85.431 119.374L89.0187 114.219C78.4186 106.172 60.6816 92.7186 56.3163 77.5277Z" fill="white"/>
<path d="M32.2569 84.6528C29.5413 72.2969 35.9763 60.537 47.2344 57.3006C58.8564 53.9764 71.0615 60.7001 74.3984 72.3284C75.4394 75.9349 78.1804 80.1684 88.1843 89.0995C89.4764 90.2473 91.4582 90.1406 92.6122 88.8487C93.7661 87.5566 93.6532 85.5748 92.3614 84.4208C82.8782 75.9537 81.0028 72.5794 80.426 70.5973C76.1298 55.6513 60.4561 46.9895 45.5098 51.2734C31.0215 55.4317 22.6923 70.3589 26.1356 86.0014C32.4704 114.84 27.7411 121.52 14.7393 125.577C13.0835 126.098 12.1677 127.854 12.6822 129.51C13.1023 130.852 14.3442 131.711 15.6801 131.711C15.9873 131.711 16.301 131.668 16.6083 131.561C34.7594 125.885 38.7108 114.056 32.2569 84.6528Z" fill="white"/>
<path d="M43.7473 108.8C43.2143 107.157 41.4517 106.253 39.8021 106.768C38.159 107.294 37.2432 109.063 37.77 110.713C40.448 119.105 35.1796 135.562 27.2457 138.134C25.6026 138.667 24.6994 140.435 25.2324 142.085C25.6652 143.408 26.9009 144.255 28.2242 144.255C28.544 144.255 28.8701 144.205 29.1899 144.098C41.2636 140.179 47.0777 119.218 43.7473 108.8Z" fill="white"/>
<path d="M72.0964 136.064C68.973 131.837 64.2628 125.439 56.4477 125.439C45.8041 125.439 44.136 143.565 43.9102 147.197C43.8034 148.921 45.1206 150.408 46.8455 150.521C46.9081 150.527 46.9772 150.527 47.0398 150.527C48.6829 150.527 50.063 149.248 50.1694 147.586C50.5707 141.1 53.0356 131.711 56.4477 131.711C61.0953 131.711 64.3942 136.189 67.0411 139.783C68.0948 141.207 69.0418 142.468 69.9073 143.333C71.1303 144.556 73.1186 144.556 74.3417 143.333C75.5647 142.11 75.5647 140.122 74.3417 138.899C73.6519 138.215 72.9308 137.199 72.0964 136.064Z" fill="white"/>
</svg>
